<svg xmlns="http://www.w3.org/2000/svg" xmlns:xlink="http://www.w3.org/1999/xlink" viewBox="0 0 294.99 169.56"><defs><style>.cls-1{fill:none;}.cls-2{clip-path:url(#clip-path);}</style><clipPath id="clip-path" transform="translate(0 -21.9)"><rect class="cls-1" x="152.04" width="108.28" height="209"/></clipPath></defs><title>ds-icon-black</title><g id="Layer_2" data-name="Layer 2"><g id="Layer_1-2" data-name="Layer 1"><g class="cls-2"><ellipse cx="152.08" cy="84.83" rx="87.45" ry="84.73"/></g><ellipse cx="232.56" cy="109.07" rx="62.43" ry="60.49"/><rect x="152.04" y="102.45" width="77.13" height="67.11"/><path d="M66,21.9V50.82H62q-5.52,0-8.28,2.34a12.89,12.89,0,0,0-3.91,7.18q-.62,2.64-.7,14.51T46.62,93.49a20.68,20.68,0,0,1-5,8.38,28.47,28.47,0,0,1-8.15,4.85,29.77,29.77,0,0,1,8.77,5.68q2.87,3,4.89,9t2,19.26q0,11.91,1.23,15.52a8.6,8.6,0,0,0,4.1,5.11q2.87,1.5,11.51,1.5v28.57H54.84q-17.19,0-24.42-3.75A21.71,21.71,0,0,1,20.1,176.68Q17,169.49,17,155.12c0-2.11.05-4.23.17-6.35q.09-1.94.09-4,0-10.23-1.85-14.55A12.48,12.48,0,0,0,10.1,124Q6.61,122.07,0,121.88V91.64q6.8,0,10.18-2.12A13.11,13.11,0,0,0,15.34,83c1.18-2.9,1.76-7.83,1.76-14.76v-3c-.05-1.35-.08-2.7-.08-4.06q0-15.6,2.6-22.57A24.25,24.25,0,0,1,26.8,28a23,23,0,0,1,9.35-4.23,78.54,78.54,0,0,1,17.9-1.85Z" transform="translate(0 -21.9)"/><path d="M132.79,21.9V50.82h-3.95q-5.52,0-8.28,2.34a12.89,12.89,0,0,0-3.91,7.18Q116,63,115.94,74.85t-2.48,18.64a20.68,20.68,0,0,1-5,8.38,28.55,28.55,0,0,1-8.16,4.85A29.7,29.7,0,0,1,109,112.4q2.86,3,4.89,9t2,19.26q0,11.91,1.23,15.52a8.6,8.6,0,0,0,4.1,5.11q2.86,1.5,11.51,1.5v28.57H121.68q-17.19,0-24.42-3.75a21.71,21.71,0,0,1-10.32-10.93q-3.09-7.19-3.08-21.56c0-2.11,0-4.23.17-6.35q.09-1.94.09-4,0-10.23-1.85-14.55A12.45,12.45,0,0,0,76.93,124q-3.48-1.94-10.09-2.12V91.64q6.78,0,10.18-2.12A13.16,13.16,0,0,0,82.18,83c1.18-2.9,1.76-7.83,1.76-14.76v-3c-.06-1.35-.08-2.7-.08-4.06q0-15.6,2.6-22.57A24.25,24.25,0,0,1,93.64,28,23,23,0,0,1,103,23.75a78.54,78.54,0,0,1,17.9-1.85Z" transform="translate(0 -21.9)"/></g></g></svg>