<svg xmlns="http://www.w3.org/2000/svg" xmlns:xlink="http://www.w3.org/1999/xlink" viewBox="0 0 498.09 56.48"><defs><style>.cls-1{fill:none;}.cls-2{clip-path:url(#clip-path);}</style><clipPath id="clip-path" transform="translate(0 -2.63)"><rect id="SVGID" class="cls-1" x="46.56" width="33.16" height="64"/></clipPath></defs><title>ds-logo-black</title><g id="Layer_2" data-name="Layer 2"><g id="Layer_1-2" data-name="Layer 1"><g class="cls-2"><ellipse cx="46.57" cy="30.05" rx="26.78" ry="25.95"/></g><ellipse cx="71.21" cy="37.48" rx="19.12" ry="18.52"/><rect x="46.56" y="35.45" width="23.62" height="20.55"/><path d="M20.2,6.71v8.85H19a3.83,3.83,0,0,0-2.54.72,4,4,0,0,0-1.2,2.2A31.46,31.46,0,0,0,15,22.92a18.21,18.21,0,0,1-.76,5.71,6.26,6.26,0,0,1-1.55,2.56,8.59,8.59,0,0,1-2.5,1.49,9.18,9.18,0,0,1,2.69,1.74,7.39,7.39,0,0,1,1.5,2.75,20.38,20.38,0,0,1,.62,5.9,18.07,18.07,0,0,0,.38,4.76,2.62,2.62,0,0,0,1.25,1.56,8.76,8.76,0,0,0,3.53.46V58.6H16.79q-5.26,0-7.48-1.15A6.62,6.62,0,0,1,6.16,54.1a17.5,17.5,0,0,1-1-6.6c0-.65,0-1.29,0-1.94,0-.4,0-.8,0-1.22a12.28,12.28,0,0,0-.57-4.45A3.81,3.81,0,0,0,3.09,38,7,7,0,0,0,0,37.32V28.06a5.9,5.9,0,0,0,3.12-.65,4,4,0,0,0,1.58-2,13.31,13.31,0,0,0,.54-4.52V20c0-.41,0-.83,0-1.24A21.5,21.5,0,0,1,6,11.84a7.36,7.36,0,0,1,2.2-3.27,7,7,0,0,1,2.86-1.3,24.44,24.44,0,0,1,5.48-.56Z" transform="translate(0 -2.63)"/><path d="M40.66,6.71v8.85H39.45a3.82,3.82,0,0,0-2.53.72,3.9,3.9,0,0,0-1.2,2.2,30.78,30.78,0,0,0-.22,4.44,17.92,17.92,0,0,1-.76,5.71,6.25,6.25,0,0,1-1.54,2.56,8.59,8.59,0,0,1-2.5,1.49,9.18,9.18,0,0,1,2.69,1.74,7.25,7.25,0,0,1,1.49,2.75,20,20,0,0,1,.63,5.9,18.7,18.7,0,0,0,.37,4.76,2.64,2.64,0,0,0,1.26,1.56,8.7,8.7,0,0,0,3.52.46V58.6h-3.4q-5.26,0-7.48-1.15a6.64,6.64,0,0,1-3.16-3.35,17.53,17.53,0,0,1-.94-6.6c0-.65,0-1.29.05-1.94,0-.4,0-.8,0-1.22a12.28,12.28,0,0,0-.57-4.45A3.86,3.86,0,0,0,23.56,38a7,7,0,0,0-3.09-.65V28.06a6,6,0,0,0,3.12-.65,4,4,0,0,0,1.58-2,13.31,13.31,0,0,0,.54-4.52V20c0-.41,0-.83,0-1.24a21.56,21.56,0,0,1,.79-6.91,7.45,7.45,0,0,1,2.21-3.27,7,7,0,0,1,2.86-1.3A24.44,24.44,0,0,1,37,6.71Z" transform="translate(0 -2.63)"/><path d="M158.58,30.91a30.7,30.7,0,0,1-2,11.28,24.42,24.42,0,0,1-5.6,8.59,25,25,0,0,1-8.73,5.47,31.73,31.73,0,0,1-11.33,1.93H108.41V5h22.05a44.89,44.89,0,0,1,9.55.91,28.26,28.26,0,0,1,7.31,2.57,19.46,19.46,0,0,1,5.27,4,20.44,20.44,0,0,1,3.47,5.23A25.64,25.64,0,0,1,158,23.93,39.44,39.44,0,0,1,158.58,30.91Zm-17,.14a16.48,16.48,0,0,0-.78-5,12.55,12.55,0,0,0-2.37-4.34,11.6,11.6,0,0,0-4.05-3,13.75,13.75,0,0,0-5.79-1.13h-4.12V45.64h4.49a12.56,12.56,0,0,0,5.27-1.06,11.12,11.12,0,0,0,4-3,13.26,13.26,0,0,0,2.51-4.6A19.28,19.28,0,0,0,141.55,31.05Z" transform="translate(0 -2.63)"/><path d="M174.68,43.67a5.4,5.4,0,0,0,2.3,3.51,9,9,0,0,0,2.77,1.24,15.26,15.26,0,0,0,4.13.48,23.64,23.64,0,0,0,3.21-.2c1-.14,2-.31,2.9-.52s1.72-.44,2.47-.69,1.37-.48,1.89-.7v10c-.62.25-1.37.5-2.27.78a29.24,29.24,0,0,1-3.08.74c-1.16.22-2.46.41-3.89.56s-3,.22-4.72.22a27.2,27.2,0,0,1-9.27-1.43,17.9,17.9,0,0,1-6.55-4,16,16,0,0,1-3.9-6A22,22,0,0,1,159.39,40a25,25,0,0,1,.85-6.77,20.48,20.48,0,0,1,2.32-5.3A16.87,16.87,0,0,1,166,24a19.49,19.49,0,0,1,4.21-2.69,21.44,21.44,0,0,1,4.62-1.54,23.1,23.1,0,0,1,4.69-.5,21.19,21.19,0,0,1,8.63,1.58,15.67,15.67,0,0,1,9,10.06,23.44,23.44,0,0,1,1,6.84v5.94Zm9.5-8.27a16.8,16.8,0,0,0-.15-2.19,6.42,6.42,0,0,0-.65-2.14A4.25,4.25,0,0,0,182,29.46a4.34,4.34,0,0,0-2.48-.63,3.52,3.52,0,0,0-2.17.67,5.32,5.32,0,0,0-1.49,1.67A7.91,7.91,0,0,0,175,33.3a12.42,12.42,0,0,0-.35,2.1Z" transform="translate(0 -2.63)"/><path d="M227.74,58.18H209l-12.69-38h16.47l4.64,20.74c.1.45.21,1,.34,1.62s.24,1.29.37,2,.23,1.38.33,2.06.16,1.31.19,1.88h.22c.12-1.12.32-2.3.58-3.56s.52-2.52.79-3.75l4.35-21H241Z" transform="translate(0 -2.63)"/><path d="M281.42,42.08a17.13,17.13,0,0,1-.44,3.8,14.41,14.41,0,0,1-1.52,3.88,15.68,15.68,0,0,1-2.86,3.58,17.86,17.86,0,0,1-4.47,3,27.51,27.51,0,0,1-6.38,2,44.3,44.3,0,0,1-8.56.74,46.5,46.5,0,0,1-5-.26c-1.58-.17-3.06-.4-4.42-.67s-2.59-.57-3.71-.91-2.09-.66-2.93-1V41.7a31.49,31.49,0,0,0,3.38,2,37.56,37.56,0,0,0,4,1.75,32.83,32.83,0,0,0,4.37,1.26,21.63,21.63,0,0,0,4.49.48,11.24,11.24,0,0,0,3-.33,5.53,5.53,0,0,0,1.84-.88,2.93,2.93,0,0,0,.94-1.18,3.64,3.64,0,0,0-.4-3.44,6.64,6.64,0,0,0-1.86-1.61,17.82,17.82,0,0,0-2.86-1.37c-1.11-.44-2.35-.89-3.71-1.36a30,30,0,0,1-6.44-3.08,19.63,19.63,0,0,1-4.34-3.77,12.94,12.94,0,0,1-2.43-4.32,15.63,15.63,0,0,1-.74-4.79A15.09,15.09,0,0,1,242.05,14a15.5,15.5,0,0,1,4.62-5.34,21.89,21.89,0,0,1,7.16-3.38,34.52,34.52,0,0,1,9.3-1.16c1.88,0,3.61.06,5.18.2s3,.3,4.25.5,2.38.42,3.37.67l2.67.67V19.66c-.84-.42-1.79-.85-2.85-1.28s-2.22-.83-3.45-1.19a32.62,32.62,0,0,0-3.92-.87,26.8,26.8,0,0,0-4.25-.33,9.68,9.68,0,0,0-4.73,1,3.05,3.05,0,0,0-1.8,2.75,3.23,3.23,0,0,0,.39,1.59,4.13,4.13,0,0,0,1.24,1.32,13.25,13.25,0,0,0,2.29,1.26c1,.43,2.12.91,3.5,1.43a63.16,63.16,0,0,1,6.57,2.87,24.31,24.31,0,0,1,5.2,3.53,14.78,14.78,0,0,1,3.41,4.51A13.12,13.12,0,0,1,281.42,42.08Z" transform="translate(0 -2.63)"/><path d="M297.33,43.67a5.37,5.37,0,0,0,2.31,3.51,8.85,8.85,0,0,0,2.76,1.24,15.39,15.39,0,0,0,4.14.48,23.85,23.85,0,0,0,3.21-.2c1-.14,2-.31,2.89-.52s1.73-.44,2.47-.69,1.37-.48,1.89-.7v10c-.62.25-1.37.5-2.26.78a29.86,29.86,0,0,1-3.08.74c-1.16.22-2.46.41-3.9.56s-3,.22-4.71.22a27.26,27.26,0,0,1-9.28-1.43,18,18,0,0,1-6.55-4,16.11,16.11,0,0,1-3.89-6A21.75,21.75,0,0,1,282.05,40a24.63,24.63,0,0,1,.85-6.77,20.15,20.15,0,0,1,2.32-5.3,17.06,17.06,0,0,1,3.45-4,19.74,19.74,0,0,1,4.21-2.69,21.81,21.81,0,0,1,4.62-1.54,23.2,23.2,0,0,1,4.7-.5,21.17,21.17,0,0,1,8.62,1.58A16,16,0,0,1,316.59,25a15.76,15.76,0,0,1,3.23,5.9,23.45,23.45,0,0,1,1,6.84v5.94Zm9.5-8.27a16.74,16.74,0,0,0-.14-2.19,6.66,6.66,0,0,0-.65-2.14,4,4,0,0,0-3.92-2.24,3.54,3.54,0,0,0-2.17.67,5.17,5.17,0,0,0-1.48,1.67,7.93,7.93,0,0,0-.86,2.13,13.51,13.51,0,0,0-.35,2.1Z" transform="translate(0 -2.63)"/><path d="M355.07,45.56a12.77,12.77,0,0,1-1.1,5.25,11.27,11.27,0,0,1-3.43,4.31A17.86,17.86,0,0,1,344.49,58a32.26,32.26,0,0,1-8.94,1.08c-1.09,0-2.24-.06-3.43-.17s-2.39-.25-3.57-.41-2.29-.34-3.34-.55-2-.43-2.72-.65V46.23c1,.4,2,.78,3,1.15s2.11.71,3.19,1a28.45,28.45,0,0,0,3.27.71,21.64,21.64,0,0,0,3.32.26,8,8,0,0,0,3.89-.69,2,2,0,0,0,1.15-1.72,1.64,1.64,0,0,0-.27-.95,3.06,3.06,0,0,0-1.08-.8,16.75,16.75,0,0,0-2.23-.89c-.95-.32-2.19-.72-3.73-1.19a26.22,26.22,0,0,1-4.26-1.59,13.43,13.43,0,0,1-3.34-2.23,8.71,8.71,0,0,1-2.17-3.08,10.56,10.56,0,0,1-.76-4.19,11.06,11.06,0,0,1,1.29-5.38,11.54,11.54,0,0,1,3.73-4,18.19,18.19,0,0,1,5.92-2.5,33.16,33.16,0,0,1,7.87-.86c1,0,2,.05,3,.13s2,.2,3,.34,1.89.29,2.77.46,1.66.35,2.36.52V31.35c-.52-.2-1.2-.43-2-.69s-1.74-.51-2.72-.76-2-.45-3.08-.63a19.7,19.7,0,0,0-3.08-.26,6.27,6.27,0,0,0-2.75.52,1.61,1.61,0,0,0-1,1.45,1.82,1.82,0,0,0,.3,1,2.56,2.56,0,0,0,1,.81,11.08,11.08,0,0,0,1.71.73c.69.23,1.53.49,2.52.76a34.71,34.71,0,0,1,5.1,1.78A14.18,14.18,0,0,1,352,38.44a9.16,9.16,0,0,1,2.27,3.08A9.8,9.8,0,0,1,355.07,45.56Z" transform="translate(0 -2.63)"/><path d="M390.31,45.56a12.76,12.76,0,0,1-1.09,5.25,11.36,11.36,0,0,1-3.43,4.31A17.86,17.86,0,0,1,379.74,58a32.38,32.38,0,0,1-8.95,1.08c-1.09,0-2.23-.06-3.43-.17s-2.39-.25-3.56-.41-2.29-.34-3.34-.55-2-.43-2.73-.65V46.23c1,.4,2,.78,3,1.15s2.12.71,3.2,1a27.84,27.84,0,0,0,3.26.71,21.74,21.74,0,0,0,3.32.26,8.05,8.05,0,0,0,3.9-.69,2,2,0,0,0,1.15-1.72,1.57,1.57,0,0,0-.28-.95,2.92,2.92,0,0,0-1.07-.8A18,18,0,0,0,372,44.3c-.95-.32-2.2-.72-3.73-1.19A26.35,26.35,0,0,1,364,41.52a13.43,13.43,0,0,1-3.34-2.23,8.84,8.84,0,0,1-2.17-3.08,10.56,10.56,0,0,1-.76-4.19,11,11,0,0,1,1.3-5.38,11.45,11.45,0,0,1,3.73-4,18.1,18.1,0,0,1,5.92-2.5,33,33,0,0,1,7.86-.86c1,0,2,.05,3,.13s2,.2,3,.34,1.89.29,2.76.46,1.67.35,2.36.52V31.35c-.52-.2-1.19-.43-2-.69s-1.74-.51-2.73-.76-2-.45-3.08-.63a19.5,19.5,0,0,0-3.08-.26,6.3,6.3,0,0,0-2.75.52A1.59,1.59,0,0,0,373,31a1.81,1.81,0,0,0,.29,1,2.6,2.6,0,0,0,1,.81,10.51,10.51,0,0,0,1.7.73c.7.23,1.54.49,2.53.76a35.55,35.55,0,0,1,5.1,1.78,14.18,14.18,0,0,1,3.73,2.34,9.13,9.13,0,0,1,2.26,3.08A9.8,9.8,0,0,1,390.31,45.56Z" transform="translate(0 -2.63)"/><path d="M409.93,9.94a7.2,7.2,0,0,1-.59,2.93,6.86,6.86,0,0,1-1.71,2.38,8.24,8.24,0,0,1-2.76,1.59,11,11,0,0,1-3.77.59,10.35,10.35,0,0,1-3.67-.61,8.67,8.67,0,0,1-2.77-1.63,7.18,7.18,0,0,1-1.74-2.39,6.94,6.94,0,0,1-.61-2.86A6.88,6.88,0,0,1,393,6.88a6.77,6.77,0,0,1,1.84-2.3,8.26,8.26,0,0,1,2.78-1.45,12.55,12.55,0,0,1,7.15,0,8.24,8.24,0,0,1,2.78,1.5A6.64,6.64,0,0,1,409.3,7,6.87,6.87,0,0,1,409.93,9.94ZM393.2,58.18v-38H409v38Z" transform="translate(0 -2.63)"/><path d="M455.31,38.51a24.17,24.17,0,0,1-1.39,8.32,17.69,17.69,0,0,1-4.14,6.51,18.92,18.92,0,0,1-6.88,4.25,28,28,0,0,1-9.63,1.52,28.87,28.87,0,0,1-9.3-1.39,19,19,0,0,1-6.87-4,17.14,17.14,0,0,1-4.26-6.35,22.7,22.7,0,0,1-1.47-8.4,20.56,20.56,0,0,1,1.65-8.5,17.15,17.15,0,0,1,4.59-6.16,20,20,0,0,1,6.95-3.77,29,29,0,0,1,8.78-1.28,26.2,26.2,0,0,1,10,1.71,20,20,0,0,1,6.83,4.45,17.22,17.22,0,0,1,3.92,6.18A20.43,20.43,0,0,1,455.31,38.51Zm-16,.08a14.42,14.42,0,0,0-.3-3,7.47,7.47,0,0,0-1-2.47,4.94,4.94,0,0,0-1.84-1.67,6.06,6.06,0,0,0-2.82-.61,5.08,5.08,0,0,0-4.47,2.1,10.45,10.45,0,0,0-1.47,6,15.52,15.52,0,0,0,.47,4.14,7.09,7.09,0,0,0,1.26,2.63A4.32,4.32,0,0,0,431,47.12a6.86,6.86,0,0,0,2.37.41,5,5,0,0,0,4.38-2.19Q439.28,43.15,439.28,38.59Z" transform="translate(0 -2.63)"/><path d="M482.28,58.18V37.44a15.12,15.12,0,0,0-.28-3.12,5.48,5.48,0,0,0-.85-2,3.27,3.27,0,0,0-1.41-1.11,5.11,5.11,0,0,0-1.95-.34,3.81,3.81,0,0,0-2,.48,4.2,4.2,0,0,0-1.34,1.28,6.2,6.2,0,0,0-.77,1.82,8.17,8.17,0,0,0-.26,2.1V58.18H457.64v-38h15.81v5.94h.14a15.2,15.2,0,0,1,1.93-2.58,13,13,0,0,1,2.66-2.19,13.93,13.93,0,0,1,3.36-1.52,13.45,13.45,0,0,1,4.08-.58,15.2,15.2,0,0,1,4.95.78,9.3,9.3,0,0,1,3.95,2.62,12.63,12.63,0,0,1,2.62,4.86,25.4,25.4,0,0,1,.95,7.48V58.18Z" transform="translate(0 -2.63)"/></g></g></svg>